<?xml version="1.0" encoding="utf-8"?>
<!-- Generator: Adobe Illustrator 23.0.4, SVG Export Plug-In . SVG Version: 6.00 Build 0)  -->
<svg version="1.1" id="Layer_1" xmlns="http://www.w3.org/2000/svg" xmlns:xlink="http://www.w3.org/1999/xlink" x="0px" y="0px"
	 viewBox="0 0 79.1 79.1" style="enable-background:new 0 0 79.1 79.1;" xml:space="preserve">
<style type="text/css">
	.st0{fill:#FFFFFF;}
</style>
<path class="st0" d="M79.1,0v70.3c0,3-2.5,5.5-5.5,5.5h0c-3,0-5.5-2.5-5.5-5.5V0L79.1,0z"/>
<path class="st0" d="M79.1,11H8.8c-3,0-5.5-2.5-5.5-5.5v0c0-3,2.5-5.5,5.5-5.5l70.3,0V11z"/>
<path class="st0" d="M79.1,7.8L9.4,77.5c-2.1,2.1-5.6,2.1-7.8,0l0,0c-2.1-2.1-2.1-5.6,0-7.8L71.3,0L79.1,7.8z"/>
</svg>
